<?xml version="1.0" encoding="utf-8"?>
<!-- Generator: Adobe Illustrator 25.2.3, SVG Export Plug-In . SVG Version: 6.00 Build 0)  -->
<svg version="1.1" xmlns="http://www.w3.org/2000/svg" xmlns:xlink="http://www.w3.org/1999/xlink" x="0px" y="0px"
	 viewBox="0 0 500 500" style="enable-background:new 0 0 500 500;" xml:space="preserve">
<style type="text/css">
	.st0{fill:#FFFFFF;}
	.st1{clip-path:url(#SVGID_2_);}
	.st2{clip-path:url(#SVGID_4_);}
	.st3{fill:#218EF2;}
</style>
<g id="BACKGROUND">
</g>
<g id="OBJECTS">
	<g>
		<g>
			<path class="st3" d="M278.91,232.14h34.48c53.72,0,97.42,43.7,97.42,97.42c0,53.72-43.7,97.42-97.42,97.42H207.48
				c-9.61,0-17.4-7.79-17.4-17.4c0-9.61,7.79-17.4,17.4-17.4h105.91c34.53,0,62.63-28.09,62.63-62.63
				c0-34.53-28.09-62.63-62.63-62.63h-34.48c-9.61,0-17.4-7.79-17.4-17.4C261.52,239.93,269.31,232.14,278.91,232.14z"/>
		</g>
		<g>
			<path class="st3" d="M175,266.76h-34.48c-53.72,0-97.42-43.7-97.42-97.42c0-53.72,43.7-97.42,97.42-97.42h116.86
				c9.61,0,17.4,7.79,17.4,17.4c0,9.61-7.79,17.4-17.4,17.4H140.52c-34.53,0-62.63,28.09-62.63,62.63s28.09,62.63,62.63,62.63H175
				c9.61,0,17.4,7.79,17.4,17.4C192.39,258.97,184.6,266.76,175,266.76z"/>
		</g>
		<g>
			<path class="st3" d="M329.24,89.75v260.36c0,9.61-7.79,17.4-17.4,17.4c-9.61,0-17.4-7.79-17.4-17.4V89.75
				c0-9.61,7.79-17.4,17.4-17.4C321.46,72.35,329.24,80.14,329.24,89.75z"/>
		</g>
		<g>
			<path class="st3" d="M167.46,146.79v263.9c0,9.61-7.79,17.4-17.4,17.4c-9.61,0-17.4-7.79-17.4-17.4v-263.9
				c0-9.61,7.79-17.4,17.4-17.4C159.67,129.39,167.46,137.18,167.46,146.79z"/>
		</g>
		<path class="st3" d="M368.02,182.8c-1.37-5.57-5.86-9.48-11.28-9.83c-5.95-0.39-11.37,2.79-13.41,8.04
			c-0.43,1.1-0.97,1.33-2.01,1.31c-2.94-0.06-5.88-0.02-8.83-0.02h-4.59v8.07c4.47,0,8.86,0.03,13.24-0.04
			c1.33-0.03,2.01,0.36,2.61,1.58c2.94,5.85,10,8.45,16.24,6.13C366.1,195.76,369.59,189.13,368.02,182.8z M355.32,191.29
			c-2.82-0.03-5.44-2.63-5.43-5.4c0.02-2.8,2.79-5.49,5.61-5.45c2.93,0.04,5.67,2.8,5.6,5.66
			C361.06,188.93,358.39,191.32,355.32,191.29z M394.67,119.73c-5.93-1.19-12.27,2.06-14.53,7.68c-0.58,1.44-1.34,1.68-2.68,1.68
			c-16.52-0.04-33.04-0.02-49.55-0.02v8.15c16.89-0.01,33.79-0.02,50.68,0.03c0.54,0.01,1.3,0.61,1.57,1.13
			c2.88,5.54,8.8,8.36,14.76,6.93c6.03-1.44,10-6.53,10-12.81C404.91,126.16,400.73,120.95,394.67,119.73z M391.96,138.02
			c-2.92-0.05-5.61-2.73-5.53-5.5c0.08-2.85,2.77-5.4,5.68-5.37c2.94,0.03,5.71,2.79,5.63,5.62
			C397.66,135.6,394.93,138.08,391.96,138.02z M418.98,146.13c-4.58-0.78-11.23,1.75-13.73,8.25c-0.46,1.19-1.06,1.51-2.26,1.51
			c-25.03-0.04-50.06-0.03-75.09-0.04v7.58c24.8,0,49.62,0.02,74.41-0.05c1.79,0,2.81,0.39,3.73,2.09
			c2.88,5.32,9.14,7.67,15.13,5.93c5.35-1.55,9.45-7.12,9.27-12.6C430.23,152.24,425.87,147.3,418.98,146.13z M417.45,164.61
			c-2.74-0.06-5.51-2.77-5.52-5.42c-0.01-3,2.59-5.52,5.67-5.5c3.03,0.03,5.45,2.47,5.44,5.47
			C423.03,162.01,420.31,164.66,417.45,164.61z M431.49,96.2c-6.34-1.51-13.01,1.69-15.37,7.54c-0.49,1.22-1.11,1.47-2.28,1.47
			c-10.89-0.04-21.78-0.05-32.67,0c-1.27,0.01-2.12-0.39-3-1.27c-5.9-5.92-11.82-11.81-17.82-17.63c-0.65-0.64-1.76-1.14-2.67-1.15
			c-10.15-0.07-20.31-0.06-30.46-0.05c0.44,1.07,0.68,2.25,0.68,3.48v4.79c8.96,0,17.91,0.03,26.87-0.03
			c1.27-0.01,2.14,0.39,3.02,1.28c5.81,5.84,11.69,11.61,17.47,17.48c1.04,1.05,2.08,1.39,3.49,1.38
			c11.58-0.04,23.16,0.02,34.75-0.05c1.52,0,2.38,0.34,3.17,1.79c2.69,5.01,8.54,7.5,14.13,6.3c5.46-1.16,9.86-6.08,10.37-11.56
			C441.73,103.67,437.51,97.65,431.49,96.2z M428.18,114.21c-3.11,0-5.71-2.5-5.67-5.46c0.05-2.67,2.8-5.38,5.51-5.4
			c2.97-0.03,5.79,2.77,5.75,5.71C433.75,111.81,431.14,114.22,428.18,114.21z M456.71,183.54c-1.04-6.34-6.75-11-13.35-10.55
			c-5.92,0.4-9.85,3.68-11.97,9.31h-1.85c-11.36,0-22.7,0.02-34.06-0.03c-1.35,0-2.35,0.33-3.35,1.33
			c-9.34,9.4-18.74,18.73-28.1,28.12c-0.91,0.92-1.82,1.34-3.16,1.34c-10.99-0.06-21.98-0.04-32.98-0.04v7.51
			c12.15,0,24.29-0.01,36.44,0.03c1.37,0,2.38-0.39,3.35-1.37c9.13-9.2,18.32-18.34,27.44-27.56c0.94-0.95,1.89-1.29,3.18-1.28
			c10.49,0.04,20.97,0.05,31.46-0.02c1.32,0,2.01,0.34,2.63,1.57c2.78,5.5,9.19,8.18,15.07,6.47
			C454.01,196.47,457.82,190.35,456.71,183.54z M444.16,191.28c-2.92,0-5.63-2.59-5.65-5.4c-0.03-2.7,2.89-5.5,5.67-5.45
			c2.84,0.05,5.49,2.75,5.48,5.6C449.64,188.84,447.1,191.28,444.16,191.28z"/>
		<g>
			<path class="st3" d="M251.34,206.36c-3.8,0.56-6.83,3.74-7.23,7.56c-0.1,0.91-0.05,1.8,0.12,2.64c0.59,2.89,0.2,5.88-1.45,8.32
				l-0.56,0.83c-2.87,4.24-7.71,6.56-12.64,5.93c-0.85-0.11-1.73-0.17-2.61-0.17c-0.88,0-1.76,0.06-2.61,0.17
				c-4.93,0.64-9.77-1.69-12.56-5.81h0c-1.84-2.72-2.74-6.06-2.1-9.29c0.17-0.84,0.21-1.72,0.12-2.63c-0.4-3.82-3.43-7-7.23-7.56
				c-5.48-0.81-10.17,3.56-9.89,8.95c0.17,3.24,2.31,6.11,5.28,7.43c0.37,0.16,0.74,0.3,1.1,0.4c3.12,0.9,5.92,2.68,7.74,5.37
				l0.98,1.44c2.66,3.94,2.82,8.93,0.81,13.24c-1.55,3.31-2.22,7.11-1.73,11.11c1.13,9.17,8.59,16.55,17.78,17.57
				c12.23,1.36,22.59-8.18,22.59-20.13c0-3.21-0.75-6.25-2.08-8.94c-2.04-4.13-1.57-9.05,1.01-12.86l0.97-1.43
				c1.82-2.69,4.62-4.47,7.74-5.37c0.36-0.1,0.73-0.24,1.1-0.4c2.97-1.31,5.12-4.18,5.28-7.43
				C261.5,209.92,256.82,205.55,251.34,206.36z"/>
			<g>
				<path class="st3" d="M261.24,214.86c0,4.75-3.85,8.59-8.59,8.59c-4.75,0-8.59-3.85-8.59-8.59c0-4.75,3.85-8.59,8.59-8.59
					C257.39,206.26,261.24,210.11,261.24,214.86z"/>
				<path class="st3" d="M209.86,214.86c0,4.75-3.85,8.59-8.59,8.59s-8.59-3.85-8.59-8.59c0-4.75,3.85-8.59,8.59-8.59
					S209.86,210.11,209.86,214.86z"/>
			</g>
		</g>
	</g>
</g>
<g id="TEXTS_1_">
</g>
</svg>
